# xmcd CD database file
#
# Track frame offsets:
#	150
#	8917
#	30802
#	50892
#	69220
#	96142
#	112647
#	135620
#	155972
#	176420
#	198675
#	222185
#	247745
#	265490
#	289612
#	313907
#
# Disc length: 4302 seconds
#
# Revision: 3
# Processed by: cddbd v1.5.2PL0 Copyright (c) Steve Scherf et al.
# Submitted via: CDex 1.70beta3
#
DISCID=de10cc10
DTITLE=ave;new - Orb Standard Edition
DYEAR=2008
DGENRE=Vocal
TTITLE0=ave;new - revolve
TTITLE1=ave;new feat. 佐倉紗織 - GIRLS
TTITLE2=ave;new feat. C;LINE - Divine -orb mix-
TTITLE3=ave;new feat. 白沢理恵 - Jewel Colors -paved mirror-
TTITLE4=ave;new feat. 羽月達也 - tearing silver
TTITLE5=ave;new feat. U-key - seduce -Electric Orbit-
TTITLE6=ave;new feat. 佐倉紗織 - Call My Dears -angel dust-
TTITLE7=ave;new feat. BRACE;d - Scarlet -gravitation-
TTITLE8=ave;new feat. Kent - Cryptocrime -GUILTY-
TTITLE9=ave;new feat. 大咲美和 - 君の涙にくちづけを -orb mix-
TTITLE10=ave;new feat. C;LINE - urge
TTITLE11=ave;new feat. a.k.a.dRESS - emit -HARD dRESS STYLE-
TTITLE12=ave;new feat. 佐倉紗織 - 淡雪 -Snow Fable-
TTITLE13=ave;new feat. U-key - Junoesque -cryolite edition-
TTITLE14=ave;new feat. BRAC;d - Devotion -Vertical Love-
TTITLE15=ave;new - sphere
EXTD=YEAR: 2008
EXTT0=
EXTT1=
EXTT2=
EXTT3=
EXTT4=
EXTT5=
EXTT6=
EXTT7=
EXTT8=
EXTT9=
EXTT10=
EXTT11=
EXTT12=
EXTT13=
EXTT14=
EXTT15=
PLAYORDER=
